<?xml version="1.0"?>
<svg width="378" height="53" fill="#FFC933" xmlns="http://www.w3.org/2000/svg" viewBox="0 0 378.156 53.06"><g>
    <path class="st0" d="M381.78,41.65v5.25c0,2.67-3.46,4.83-7.29,4.36-.83-.1-1.63-.32-2.35-.68-4.44,2.37-10.54.55-14.93-1l1.15,1.31c.78,1.32-7.32.16-8.28.09-1.04-.08-1.98.27-2.65.25-.45,0-.38-.52-1-.62-4.21-.71-4.94.78-9.2.62-1.04-1.43-2.83.47-3.78-.99-1.72.62-3.74-.08-4.95-.02-.63.03-1.31,1.29-2.63,1.51-1.1.18-2.81-.39-4.07-.35-1.19.03-2.18.6-3.62.69-3.42.2-8.15-.26-11.35-.6-1.35-.15-1.88.46-2.52-.56l-4.01,1.67v-1c-2.32.97-2.94.17-4.14.14-4.89-.15-7.68-1.11-12.87-1-2.85.06-6.96.34-9.72.51-2.47.15-11.77.24-13.65.02-.6-.07-.4-.69-.85-.68-1.16.02-1.75.67-2.79.63-1.16-.04-3.25-1.03-4.51-1.28l-2.88,1.33c-2.81-1.07-6.88.05-8.93-1.1-.97-.54-2.78-4.23-3.51-4.23-1.88,0-.69,1.08-.39,1.51.56.83,1.42,1.51,1.98,2.32-.06.24-1.41.87-1.92.96-2.9.52-5.44-.32-7.68-1.13l-1.5,1.35c-1.69-.05-4.98-.45-6.52-.28-.47.05-.36.84-4.4.6-3.46-.21-4.57-1.69-5.81-1.68-.63,0-.13.65-.79.68-.47.02-1.32-.32-2.03-.27-2.22.16-2.86,1.26-8.81.91-.47-.03-.81-.06-1.09-.08v.41c-1.16-.07-2.25.66-3.01.71-.31.02-3.54.05-3.72.02-.58-.08-3.09-1.14-3.28-1.16-.66-.08-1.37.31-1.97.21-.73-.12-1.25-1.12-2.16-1.16-.88.59,1.22,1.36,1.22,1.56-.96,1.05-1.63.23-2.66.2-1.46-.05-2.75.11-4.46-.09-.63-.08-1.02-.45-1.77-.48-1.1-.05-1.83.51-2.45.49-.51-.02-1.99-.74-3-.58l.03-.61c-2.1-.31-3.32,1.78-5.35,1.44-.26-.04-.22-.48-.45-.49-.55-.05-1.3.34-1.99.26-.26-.03-.08-.48-.74-.52-1.04-.06-2.07.22-2.98.5l1.04-1.07c-.93-.41-2.04.58-3,.6-1.04.03-1.16-.73-2.87-.33-1.26.29-1.32,1.12-2.05,1.25-.65.12-1.31-.21-1.99-.19-.74.02-1.56.38-2.42.22-.28-.05-.21-.49-.41-.49-.63.01-2.47.95-3.48.99-.74.03-1.48-.29-2.11-.27-2.82.08-5.92.3-8.71.27-.66,0-.48-.53-1.19-.65-1.35-.22-2.29.6-2.65-.34h-.33c-.89.08-4.01,2.89-4.02.73l-3.32.49-.17-.73c-3.2.84-5.97-.63-9.08-.48l.17-.72c-.96-.16-2.99.72-3.49.72s-.95-.54-1.72-.49c-.81.05-1.39.97-2.46.96-.59-.01-1.03-.39-1.48-.43-.63-.06-1.15.17-1.6.13-.83-.08-1.02-.68-2.7-.3-4.3.99-9.07.35-13.78.36-.93,0-1.71.26-2.45.27-.66.01-.32-.48-1-.52-1.33-.08-2.18.51-2.81.49-.97-.03-3.7-1.26-4.53-1.2-1,.08-1.47,1.24-3.12,1.2-1.14-.03-2.51-.8-3.23-.87-1.1-.11-3.15.63-3.37.61-.28-.03-.82-.43-1.28-.58-.4-.12-1.16-.02-1.35-.16-.13-.1.04-.48-.13-.61-.17-.14-.78.02-1-.2-.26-.25-.51-1.22-1.07-1.86-.31-.34-1.68-1.53-2.22-1.6-1.31-.17.15.82.26,1.02.6,1.12.67,1.92,2.01,2.93-1.41.64-2.54.53-3.9.66-.64.06-1.69.45-2.17.37-.36-.05-.65-.47-1.18-.6-.74-.19-3.32-.75-3.87-.5-.32.55-.29,1.02-1.27,1.16-1.72.26-1.6-.47-1.79-.49-.6-.05-3.77.58-3.96.49l-.17-.72c-1.05,1.42-2.77.94-4.88.96-1.21,0-3.33-.09-4.38-.59-.36-.17-.13-1.17-1.57-.99-.48.06-1.32.97-2.09,1.1-1.05.15.03-.84-1.04-.72-.66.07-.82.46-1.24.59-2.81.84-3.94.35-6.77.18-2.75-.16-4.42.01-6.99.19-1.09.07-3.67-.52-4.85-.47-1.4.05-4.12,1.88-5.26-.24.21-1.06-2.48-5.3-2.23-5.84.2-.43.96-.44,1.49-.41l1.27,1.21-.35-1.92c1.54.17,1.54,1.49,2.63,0,1.35-.29,1.8,2.11,2.95.36-1.21-.65-2.9-2.96-4.19-3.35-1.03-.32-2.05.26-3.13-.13l.21-.73,1.2-.37-.71-2.71,1.05.16c.06.58.93,2.47,1.57,2.71,1.23.46-.07-1.05-.1-1.13-.47-1.19,1.07-1.06,2.37-1.02-.36.86-1.12,1.13-.51,2.14.06.1,1.63,1.61,1.74,1.67.79.49,2.64.64,3.3,1.57l-1.07.73c1.66,1.31-.35,1.82-.33,2.37,0,.29.76.93.89,1.32,1.61-.05,1.63-1.31,2.61-1.8.75-.36,2.18-.28,2.42-.75-.63-1.51-1.22-3-1.38-4.64,3.38-.76,4.99.88,1.04,1.44-.17.76.85,1.23,1.63,1.64l.62.02c.36-.08.39-.52.66-.65.7-.35,1.18.49.59-1.02,1.81-.19,2.53.18,3.36,1.21,3.13-1.11,2.89.27,5.36.7.43-1.93-1.04-1.51-2.07-2.05-.18-.09-2.02-1.39-1.76-1.54,2.64-.69,2.79,1.21,5.05,1.43.86-1.1,2.06-1.41,1.58-2.87,1.38-.18,5.93,2.21,4.19,3.01-2.26-.35-3.39.86-2.25,2.24,1.11,1.33,1.69.63,2.69.78,1.19.18,3.47,2.76,1.29-1l2.24.47c.55-.11.4-.72.66-.9.18-.12.74.01.97-.2.85-.77,0-1.45-.73-2.01l2.12-.1c.36-1.71,2.95-2.37,5.21-1.94,1.08,1.67-.56.37-1.23.36l-.17.48,3.05,1.26c.07.54.97,1.19,1.13,1.5.34.67-1.37.05-1.04.71.19.38,3.25,2.38,3.73,2.48,2.38.47.7-2.11,3.01-2.32,1.86.35,1.63,2.13,3.21,2.6,1.31.39-.14-.78-.17-.84-.63-.97,3.27.75,2.09,1.56,1.65-.56,1.84-.56,3.49,0,.08-.81-2.07-1.22-1.72-2,.21-.47,2.71-.73,2.61-1.83,1.98.07,2.14,1.56,3.47,2.4.36-1.51.84-.33,1.58-.11.93.27,3,.67,4.18.95,1.16.27,1.7,1.06,2.13-.09l1.36.21c-.65-.57.3-.9.28-1.28-.05-.81-1.38-1.01-2.38-.87l.7,1.07c-2.1.43-3.04-1.34-3.99-1.81-.83-.41-2.43-.22-2.94-1.11-.39-.66,1.87-1.27,1.99-1.66.06-.21-.29-.49-.29-.67,0-.09,1.37-.41.35-1.58,2-.18,1.39,1.69,2.1,2.63.92.12,1.35-.3,1.91-.71,1.4,1.04,1.53,3.22,4.01,3.1-.6-.52.21-.87.22-1.08.03-.66-5.18-3.04,1.53-2.27-.61.81.12,1.52.04,2.29-.05.45-.7.31-.69.46.04.49-.05,1.41.02,1.63.14.53,1.98,2.06,2.2,2.81,1.25.16.84-.31.87-.96h1.75c.24-.95-.63-1.48-1.91-1.68-1.07.47.36.83.17,1.44-2.93-.53-.59-1.4-1.39-2.63,1.38-.02,2.39.83,3.32,1.43h.51l.87-.71c.82.62,1.68,1.07,2.98.95l-.35-.95,1.4-.36-1.06-.25c.7-.58-.53-1.71.7-1.67.49,1.25,2.91,2.13,2.1.24l.68-.12c-.03.58.42,1.25,1.4,1.2l-.1-1.14c1.02-.53,1.54-1.34,1.85-2.21,1.18-.85,1.04,3.18.76,3.45l3.08,1.34c.15-.74-.31-1.26-.98-1.8,0-.99,4.38-.74,5.17-.48,1.55.52-.36,2.18,1.38,2.62.47.12,1.28-.34,1.75.26l-1.2.35-.18.48c1.49.69,4.04,1.97,5.25.37l-1.76-3c3.36-.33,1.87,2.73,4.53,2.39-.65-1.06-1.09-2.26-2.45-3l.02-.34c1.08.03.88-.8,1.08-.94.19-.13,2.37-.08,2.77.08-.08.84.66,1.19.93,1.75.14.3-.26.6.11,1.09.26.35,2.18,1.73,2.76,1.36l-.7-1.19h2.79c.26-1.1-1.99-1.28-1.74-2.39l2.09,1.19c-.64-.93.13-1.07.51-1.7.24-.4-.44-.85.72-.95,1.04-.1,1.81.36,2.26.97l-1.39.12c1.11,1.04,2.99.01,2.79,1.8l-2.78-.47c.43.75-1.19.83-1.06,1.3.87,1.16,3.34.47,4.18.71,1.45.42,1.7,2.63,3.5,1.93-.89-1.31-2.39-1.87-2.09-3.47,2.16,1.24,2.48.08,4.11-.19,1.51-.25,1.85.77,2.69,1.38l2.27-.96-.7-1.19,1.57.47c.32-.18.44-.22.44-.53,0-1.08-.95-1.48,1.82-1.38l-.7-.96,1.74.48v-.72s1.38.26,1.38.26l.02.71h-1.05c-.22,1.99,2.34,1.75,4.54,1.92-.09-1.04-.31-2.3-1.74-2.75,2.08-1.53,2.29-.15,3.28.37.5.26,1.24.2,1.79.45.44.2,1.87,1.38,1.55,1.69l-1.72-.22c-.26,1.15-1.77,1.87-3.17,2.37.07.49,1.04.35,1.31.53.52.36.56,2.86,2.88,2.57.25-.15-3.54-2.36-.58-2.36.79.15,1.43,1.48,2.14,1.88.74.42,3.09.96,3.66,1.32.39.25.26.69.41.78.13.08,3.13.53,3.08-.19-1.55.16-2.29-.84-3.48-1.32l.69-.71-1.04-.96c1.21-.43,2.16.75,3.32.84.47-.14-.02-.63-.22-.8-.36-.31-2.84-1.18-3.56-1.42-.48-.16-1.03.01-1.29-.08-1.84-.63-.23-3.32,1.35-2.69,1.16,1.86,2.18.43,2.35.42.45-.01,1.25.4,1.89.25.11-.66-.79-.97-1.17-1.43-.25-.3.28-.95-1.27-1.32l1.23-.35-.19-.49c1.6-.23,1.04.64,1.12.67.17.1.76.09,1.16.27.37.17.63.61,1.08.67.99.13,3.03-.46,4.07-.64l2.52,1.41.86-.36c-1.15-.36-2.03-2-.39-1.28.17.07,1.72,2.37,1.44,2.6-.8.08-.97-.49-1.65-.66-.61-.15-2.75-.48-3.43-.53-.55-.05-.55-.04-.51.35.16.61,2.96,2.13,2.45.6,3.51.02,3.8,3.05,6.44,4.08.25.1,2.96.72,3.15.72,1.18-.05.99-.91.53-1.45l1.41.15c.92-1.6,2.02-1.9,3.82-.62-.17-.94-.84-1.48-.73-2.52.08-.71.73-1.15.73-1.43,0-.49-1.54-1.36-1.39-2.03.85.32,1.88.35,2.81.39-.12-.05-.23-.11-.32-.2l.09-.46c2.63.04.79-1.5,1.37-2.03l4.37-.33c-2.02,1.13-1.37,2.13-.12,3.01l3.66-.75.7.85-1.54-.21-.5.9,1.5.51c2.07-2.19,2.79-.54,5.08.24l-.47.43-2.8-1.14-.84.58.62.96-1.39.37c-.68.53,2.22,2,3,1.95,0,0,.02,0,.02,0,.05,0,.09-.02.11-.03-.3-.37-.38-1.82.41-2.11l-.15-.55,2.53.67,1.12-1.67c3.26.03,1.82,1.98,5.42,1.03l2.6.97c.99-1.69-1.91-1.91-3.63-3.16,2.74-1.76,3.32,1.92,5.08,1.16.36-1.14,2.64-1.8,1.47-2.99,1.68-.2,1.2.14,1.67.42,1.49.87,2.93,2.12,2.7,3.24l-1.81-.66c-1.69.47-1.32,2.24-.44,2.77.59.36,3.19.19,2.99,1.21,1.91-.03-.17-1.61,0-1.66,5.52.59,3.19-2.32,3.78-2.93.08-.08,1.02-.12,1.3-.32,1.57-1.12,2.61-2.64,5.86-1.25l-1.46.32c.51.93,2.75,1.75,3.17,2.57.64,1.22-.77,2.46,3.04,3.6,3.27-4.73,4.34,1.13,10.57.67l-2.06-1.5,3.87-1.82c1.39.3,1.35,1.69,1.92,1.95.08.04,1.23-.21,1.87-.04,1.89.49,3.77,1.76,6.33,1.38,2.08-.3,1.67-2.53-.99-2.3l.73.99c-2.03.7-4.61-2.36-6.44-2.88l2.11-1.33-.72-.98,1.45-.33-.42-1.15c1.79.59.62,1.66,1.44,2.36.31.27,1.67,0,2.21.28,1.11.59.97,1.85,2.93,2.35,2.22-1.26-1.81-2.32-.36-3.66l2.86.37-.68,4.61c3.43.3-.69-1.43,1.81-1.32l1.91,1.3,2.38-.34,1.56,1.03c.58-1.21,1.84-1.63,1.83-2.99l1.18.67,2.38-.05.83-1.43-2.21-1.53,1.46,1,2.9-1,.12,3.94,2.81.39c-.77-.74-1.52-1.75.33-2.26,6.47.48,3.34,1.25,4.08,2.39.41.62,2.94.28,2.1,1.19l-1.42.17,3.29,1.5c3.11.31,1.04-3.02.36-3.66,1.31-.12,1.86.28,2.37.75.73.69-.27,1.79,2,1.57.55-.96-3.16-3.78-1.35-4.28h2.74c.83,1.25.48,2.72,2.08,3.86.47.33-.06.58,1.64.43-.86-1.31,1.23-1.21,1.85-1.98.63-.77.7-1.95,1.08-2.79,3.76-1.05,1.14.96,1.45,1.1,2.1-.02,3.34.26,2.91,1.34l-2.9-.34-.63,1.43c.56,1.1,2.99.43,3.91.87,1.01.49.79,1.57,2.19,2.02l-1.09-3.66c1.98.71,3.86-.37,4.65-.31,1.42.1,1.34,1.29,2.63,1.31.44-.77,1.88-1.19.73-2h2.21l-.69-1.11c.46-.76,3.92-.53,3.61-1.55,2.97.51-.89.92.32,1.99,1.46,1.3,5.87,1.04,4-1.42-.26-.35-1.83-.12-1.41-.73l2.9-.5c-.35,1.35,3.37,1.32,2.98,2.78-.06.24-1.25.22-1.5.44-.98.86-1.52,1.8-2.95,2.59,1.02.86,3.26.53,3.67.65.93.27,4.49,3.6,7.3,3.85.4-.77-1.72-.96-1.99-1.54-.2-.43.93-1.17-.19-1.79l2.91.66c.75-1.39-3.75-1.63-4.76-2.68-.51-.53-.39-2.65,1.84-2.32v1l3.62-.36c.87-.57-2.77-2.69-.33-3.3,1.99,2.3,5.35.81,7.26,1.03,1.06.12.85,1.57,3.36.8,1.74-.54-2.26-4.91-1.5-6.28.14-.26,1.47-.23,1.5-.41.14-.84-4.45-2.39-5.15-2.14-.21,1.34-3.27,1.89-4.75,2.99-2.9-1.19.84-.65.36-1.66l-3.64-.84.02-.48c2.93-.18,2.94-2.14-.74-1.35l2.91-.66v-1c-.28-.14-5.79.71-5.1-.67l2.81.3c1.91-2.05,2.13-.49,2.41-.4.17.05,2.55-.3,3.53.43l.06-1.65,2.14-.02-1.46-.99,2.91-.5-2.18-.17,2.16-1.51,3.37.5c.32.21-.84,1.44-.45,2.11.18.31,1.48.33,1.77.59.85.73,1.1,1.81,2.14,2.53.4.28,1.73.33,2.3.79.12.09.92,1.91.79,1.99l-2.28.65c-1.08.8,4.93,3.03,5.42,3.89.52.92-3.39.63-4.29.45-1.05,1.8,4.04,3.02.73,4.5-.95.3-1.5-.68-2.53-.73-1.35-.07-3.27.87-4.76.9,2.26,1.88,3.2,3.81,7.68,4.98l2.94-2.31c.4-.41,2.35-.2,2.57-.55.11-.17.57-3.25.51-3.55-.09-.54-.93-1.07-1.3-1.57,4.45-.2,4.98,1.92,8.75,1.66l-.42-1.33,2.39-.61,1.68.45-2.18.66,1.82.83c1.27-1.54,3.43-1.07,4,.33l-2.91-.66c.32,1.79-3.71,2.94,2.18,3.66l-.66-1.44,2.12-.55c-.03.68-.1,1.37.32,2.03.43.69,1.72.62,1.79.68.45.39-1.84,1.09.44.94l1.11-1.34,2.91.34c.16-.85-2.17-1.23-2.62-1.97-.9-1.48,2.55-1.02,3.71-.03l1.12-1.31c.39-.04.8-.01,1.22.04ZM31.74,49.62c-.43-1.47-1.49-2.64-3.48-3.35-.22,1.38-.84,3.21,1.55,3.83l1.93-.48ZM47.44,43.15c-.25-1.53-2.9-1.78-4.53-2.39.42,1.36,3.47.97,3.13,2.63l1.39-.24ZM184.49,40.06l.19.03c.8.16,1.37,1.22,2.49,1.28.09,0,.2,0,.31,0-.49-.52-.99-.96-1.36-1.12-.5-.22-1.08-.2-1.63-.18ZM188.43,42.52l-.27-.36c-.18-.07-.44-.14-.8-.21l-.51.72-2.05-1.18-1.19.82c.25.24.45.55.74.75.21.15.46.28.71.42.66-.09,1.35-.17,2.06-.13,0-.08,0-.15.06-.2.19-.22,1.01-.41,1.26-.64ZM192.25,43.63h-.43c-.19.39-.43.79-.59,1.2.74-.25,1.25-.16,1.01-1.2ZM209.13,45.59c-.73.71-1.76,3.93,1.07,3.66,1.78-.17,1.85-3.46-1.07-3.66ZM363.02,41.93l-2.22.2-.7-1.19c-4.11,1.03.36,1.88.37,3.32l2.56-2.32ZM379.81,33.1l1.97-.53v1.6c-.51.16-.98.22-1.24.09l.59-.96-1.32-.21ZM377.25.82c2.65.39,4.53,2.03,4.52,3.9v27.06c-1.14-.17-2.77-2.57-3.06-2.51-2.52.86-.85,1.98-1.05,3.16-.18,1.1-.57,3.03-3.7,3.16.39-.59.65-2.96.33-3.34-.24-.28-1.58-.6-2.1-1.01-2.18-1.77.02-1.54.75-2.64.34-.51-.4-1.09-.06-1.35.24-.18,1.35-.17,1.79-.58.34-.34.89-2.04-.71-2.07,1.19,2.18-4.44,1.82-2.93,4.33l-2.9-1.16,2.1-.54-.73-.92-2.07-.02c-1.14,1.46-3.58,2.15-3.7,3.97l2.12.03c1.57.83-3.44,2.45-3.58,3.47l1.83-.49c3.79,1.91-4.1,2.13-6.92,1.99,1.44-1.07-1.94-1.64-2.2-2.99l-.73,1.33c-2.12-.12-2.22-1.75-1.29-2.26.47-.26,7.18-1.07-.16-1.74l-1.46,1.34c-.24-1.07-1.08-1.79.72-2.66h-3.64l-.1-1.29-2.81-.54,1.48-1c-2.63-.29-1.22-1.47-1.67-2-.13-.16-.87-.15-.98-.27-.55-.57-.17-1.37-1.75-1.56l-1.11,2-1.45-1.32c-3.05,1.75-7.11-.84-8.78,1.33-1.43-.53-4.98-.42-3.26-1.34-2.02-.31-2.91,1.34-1.81,1.34,3.81-.56,7.83,1.49,6.18,3.32-1.81.32-1.37-.5-1.61-.56-1.93-.5-2.35.05-2.03.9l-1.81-.66-2.56,1.17,2.18.16c-1.45,1.92.17,1.42,2.2,2.83l-1.52.36,1.51,2.8c-1.38-.29-3.24-.23-4.61.07-1.47.33-.62,1.16-2.67.93-1.82-1.66,1.3-2.65,2.2-4.18l-.36-.49c-3.66-.17-.45-2.58-.7-3.01-.67-1.18-.75-.97-1.21-2.43-.54-1.72-1.98-1.45-2.12-1.55-.13-.11,2.18-1.41.63-2.29l-3.2-.37c-.44,1.56,1.34,3.07,1.16,4.76l-2.97,1.22,1.78.35,3.32,3.32-2.91-.34-.86,1.95c-.55.18-1.65-.03-2.06.04.1-.17-.04-.45,0-.66l-2.91.33c.82-.93,2.29-1.63,4.38-1.83l-2.92-1.33c-.41-.77,1.65-.23,1.48-.99-.23-1.06-2.79-1.08-2.94-1.17-.15-.09,3.47-1.95.38-1.99-.47.12-2.57,1.92-2.57,2.17,0,.37,3.35,2.13,2.94,3.65l-2.21.17.16,2.17,1.31.34c.78-.63,1.76-.62,2.92-.84-.18.3-1,.6-1.46.84l1.45.83c-2.98-.33-4.01-.8-5.46.66l-2.55-.67,1.45-.66c-2.6.2-2.86-.08-4.02-1l-1.43.35-.48.93-3.54.04c.28-.85,3.12-1.47,3.71-1.91.51-.37-.05-.99.05-1.04,1.33-.66,3.83-.26,4.99.29,1.69-1.23.93-1.96.73-3.33l-1.46,2.33c-3.79-.13-10.56-.36-10.21-2.67l2.19-.33c-3.85.09-1.44-3-2.21-3.32-6.12.05-3.01-1.39-3.09-1.84-.06-.33-1.38-.55-1.6-.81-.47-.58.85-2.19-2.22-3.01-2.61-.05,1.26,1.21-1.81,1,3.9,1.38.25,3.47.86,4.82.1.23,1.26.18,1.57.58.32.42-.41.98-.11,1.17.24.16,1.35.2,1.95.64.63.47.36,1.38.84,1.93h-2.92c3.66,1.02,2.94,3.38,4.8,4.47,2.26,1.32,3.09.91,3.85,3.17.26.78-1.51,1.78,1.55,2.68-1.54.67-3.54.2-2.9,1.5l-7.71-1.32c-1.01-1.17,2.79-1.43,2.66-2.49-.02-.19-1.37-.02-1.57-.66-.55-1.73,1.19-2.61,1.5-4.19l-1.52.97-1.69-.31-.44.67-1.46-.99-2.9.66c1.43-1.38-2.2-2.05-2.26-2.21-.17-.49,1.25-1.45.79-2.12l2.18.67.66-1.3-1.37-.36c6.43-.2-.08-2.79,3.64-4.66-.68-.31-2.79.65-3.17.99-.92.8.83,1.7-1.93,1.67-.08-.26,1.8-.47-.79-.86,1.44-1.23-.03-2.41-2.86-1.8l.74-.66c-2.29-.37-4.33.02-6.22.67-.66-.69-.68-.78-2.53-.67l-.53,1.19c2.95.94,4.53,2.96,1.25,4.14,1,.45,4.96-1.86,5.67-1.98,1.79-.29,3.62-.04,5.27-.02.17.56.87,1.08.73,1.67h-2.19c.52.38.93,1.03,1.46,1.33l-2.56.99.37-1.48-2.19-.51v1.33s-2.46-.36-2.46-.36c-1.97,2.2-4.3.76-7.75,1.37-.56-.18.11-2.04-2.19-1.67l.72,1.33-2.18-.66.05,1.15,2.13.85c-4.13.83-7.1-.04-4.91-2.09,1.62-1.52,4.21-.88,7.11-1.4l-1.16-.86-3.21.69-2.28-3.64-2.1-.02c-.4-.65,1.46-.86,1.35-1.44-.31-1.41-2.94-3.3-4.04-4.49-.74-.81-1.63-2.63-2.36-3.17-.67-.49-3.73-.92-2.97-.06,1.57,1.12,1.36,2.12,4.37,3l-2.18.17c2.95.96,2.98,1.64.73,2.99,3.2.38,2.41,3.2,4.37,4.51-.67,1.02-2.17,1.62-4.36,1.16-.35.92,2.26.64,1.84,1.83-.32.9-4.69,2.96-6.96,1.83.26,1.32-2.87,3.15.72,3.83l-3.99,1.17c-1.91-.18.19-2.05-1.48-1.99-.85.02-.59,1.35-2.55.99v-2.67s1.44.34,1.44.34l.74-1.33-2.22.2-.71-.86-1.46.17c1.33.89-.22,1.25-.69,2.01-.43.69.99,1.72-1.48,1.48-.74-1.35-1.13-2.44-1.07-3.84.04-.75,2.22-.69-1.91-1.7-.4-1.15,2.23-1.53,2.27-1.67.21-.6-.71-1.15-.74-1.66-.04-.74,1.91-1.94.7-3.11-.99.16-1.62,1.53-1.85,1.98-.44.85-.09,1.87-.85,2.61-.93.89-3.35.38-1.99,2.08l-3.32.65.85,1.61c4.3-.03,8.84,2.42,2.79,2.71v-1.66s-2.55,1.66-2.55,1.66l-1.78-.35.69-2.31-2.03-.05c-.55-.53-.42-1.16-.95-1.69-.07-.08-3.25-1.11-1.04-1.25,3.18-.2,2.5.73,2.91.66l.74-.33c.13-.2-.42-.64-.38-.66.1-.08,3.18-.73,3.65-.83l-7.29-1.17.42,1.03c1.07.35,3.82-.09,3.22.97l-7.29-1c2.3,1.24.12,1.94.09,2.81-.02.53.12,2.56.24,3.03.09.36,1.53.58,1.13,1.15-1.94-.18-2.76.31-2.98,1.15-.02.05,3.16.36.41.85-1.47.26-2.01-1.75-2.48-2.16.81-.67,1.62-.26,2.85-.16v-1.67c-2.26.52-4.99,1.44-4.41,2.78.09.21,3.62.28-.44,1.49l-5.37-.79,1.5-1.66c-2.07-.3-1.26-.3-.77-1.16-3.56-.15-1.84,3.05-4.02,3.32-1.71.21-2.03-1.18-1.82-1.66-.28-.14-6.04,1.76-7.3,1.33.51-.77-.35-1.55-.9-2.26-.03-.01-.06-.03-.08-.04l.03-.02c-.3-.4-.49-.76-.28-1.09l-.11-.08,1.38-.8v.23c.37-.1.84-.19,1.42-.27l.73,1c1.84-1.11-.5-2.13-.4-2.68.13-.69,1.82-1.7,1.12-2.64-1.02.27-1.95.29-2.87.21v1.66l-.59.22.51.53h.07s0,.45,0,.45l-.34-.41h-1.16s.43.24.43.24c-.81.79.06,1.15-1.55,1.66l-1.91-1.55,1.74-.12-.1-.22h-.3c-.41-.04-.71-.45-1.13-.87-.29.01-.64-.07-.89.02-.66.23-.91.83-1.45,1.17-.32.2-1.03.2-1.41.49-.09.07-.19.28-.27.55.7.18,2.33.58,1.74,1.3h-1.9c.02.2.07.35.17.41l2.05.03-.7.36.7.94-.73.28c-1.53-.5-1.18.1-1.72.45-.12.08-.44.23-.77.41.09.18.3.36.55.54.23-.71,2.07-.03,1.59.94-.19.38-1.61.56-2.92.78v.02l2.22.83-5.83.67c-1.42-.53,1.39-.73,1.38-.8-.13-.21-.25-.42-.35-.63h-1.11l.7.72c-1.15.21-1.13-.54-2.1-.84l.71-.83c-2.01.08-2.43-2.25-4.53-2.04l1.74,1.8-2.75-1.11.32-1.76,2.09.13c1.65-1.07.36-1.58-1.4-1.72-.98.22-1.15.68-1.04,1.35h-1.04c.11-.91-1.16-.57-.38-1.64l-1.02-.5,1.56.24.18-.48c-.98.07-1.16-.22-1.57-.73h-.51c-1.57,2.2-1.52-.58-1.75-.72-.1-.06-1.71.33-2.44-.24l.7-1.43-1.38-.02c.4-1.45-1.48-1.51-1.96-1.89-.36-.28.5-.99.14-1.41-.06-.07-1.86-.86-2.03-.75,1.34,1.04.55,1.31.7,2.39-1.48.23-1.08-.56-1.49-.89-.3-.24-1.5-.33-1.83-.78l.18.95-2.1.48.7-.72-2.44.48.34-.72c-1.7.67-4.1-2.02-4.73-2.12-.44-.07-1.57.36-2.24.2.43.64,1.87.62,2.62.95.34.15,1.45.89,1.19,1.19-.76.02-.86.6-1.46.8-.91.31-2.77-.67-4.1-.31l.35-.72c-1.38-.2-1.37.21-2.09.84l1.05.24-1.05,1.55,2.09-.24c-1.35-.9-.57-1.67,1.13-1.39.6.09,1.45.75,2.04,1.01.42.19,1.05.09,1.52.37.34.21.59,1.9.16,2.14-1.41.42-1.38-.52-1.92-.66-.87-.21-4.8.67-5.62,1.1-2.25,1.19,1.54.46,1.65.54l-.7,1.67c1,.05,3.43.63,2.61,1.44l-1.91-.12c.89,1.04,2.68.43,1.72,1.65.85.29,1.16.66,1.07,1.34-1.47-.33-2.33-.37-3.65.24l-.7-1.2c-.63.61-1.36,2.02-2.77,1.93l-1.23-.88c.41-1.23.42-1.82,2.4-2.27l-.32-.69h1.39l-.97-.84c0-.14.97-.62.62-.84-.5-.31-1.35.09-1.08.68l-1.36.03c-.48-.6.71-.77.7-.84-.04-.43-1.08-.9-.71-1.55,2.67.3.68-.96-.17-1.44l-.87.72,1-2.6c-1.48-.18-.61-.72-.78-1.06-.79-1.63-2.09-1.41-2.49-1.83-.49-.5.18-1.87-1.91-1.68l1.39,1.19-1.05.12-.51-.6c-1.54,1.53.72,1.89,1.55,2.96l-2.42,1.58c1.4.31,1.12-1.15,2.44-.6-.8.28-.27,1.05-.34,1.07-.4.15-2.89.2-2.79,1.2,3.17-.42,2.4,2.8,5.37,2.86l.21.74-3.49-.24c.72,1.17-.15,2.31-2.2,1.87-.54-.12-.79-.66-1.46-.67-.7-.02-1.18.57-1.92.48.17-1.15,1.27-.99,2.29-1.67l-.54-.96c.35-.29,3.21,1.92,3.13.84-.06-.71-3.54-1.31-4.18-1.92l2.09.12c.41-.58-.49-1.72-1.33-1.8-1.08-.1-2.11.65-1.8-.59l.97-.03.76-1.41c-2.26,0-3.63,1.31-3.82,2.72.11.21,2.17.87,2.36,1.16.25.37-.42,1.2,1.12,1.86-.77.73-4.8-.14-4.53.84.23.86,2-.38,2.44-.11-1.13,3.66.89,1.29,3.49,1.31l-.7.84c.93.04,1.27.13,1.57-.49l.88.48-2.97.96-.36-.95c-2.26-.07-2.11.72-3.12,1.2-1.21.58-1.01-.98-2.98-.49l1.23-.48-.36-.48c-1.82.33-2.77.31-3.51-.93l-1.9.22.7,1.67h-1.04l.35-.96c-1.27.22-2.1,1.37-3.49.35-.18-.62,3.02-1.45,3.32-1.79.25-.3.09-.9.17-.95.13-.09,1.07.07,1.5-.01.28-.04.23-.45.46-.48.86-.12,1.46.36,2.2.51l-1.02,2.13h1.39c-.59-.77.1-.97.33-1.57.36-.92-.6-.88,1.42-1.43l-.7-1.07,1.04-.23c-.94.09-.6-.67-1.22-.96-.67.39-.52,1-.86,1.51-.17.26-1.07-.09-.36.87-.71.18-1.24-.39-1.64-.43-.42-.04-.83.39-1.35.43-1.08.08-2.21-.04-3.29.01l.86,1.2h-2.61c-.07-.49.4-1.13-.7-.96l-.7.96c-1.01-1.29,1.34-2.2-1.06-2.99-.4-1.05,1.69-.22,1.05-1.19-.32-.48-1.86-.43-1.58-2.17.07-.45.73-.68.83-1,.21-.64-1.16-1.88-2.21-1.74-1.27.86.58.9.77,1.02.21.14.4.88.8,1.14-1.62-.33-3.18-.56-4.18-1.56l1.04-1.06-1.6-.48c.4-1.11-.13-1.79-1.89-1.68l.17-.73c-.27-.45-1.72-.66-2.26-.35l1.04,1.07-1.74-.12,2.92,1.3.21.49c-1.78-.25-.93,1.23-2.09,1.8l1.04.48-.69.6,1.6.48-.21,1.2c1.91-.03,3.04,1.06,2.48,2.28l1.01.11c.09,1.29-2.33-.32-3.13.12l4.18,2.16c-2.77-.33-.13,1.78.67,2.17.68.34,1.31.26,1.66.42.57.27,1.4.99,2.2,1.24l-1.04.35,1.35,1.37c-1.28,1.87.36,1.92,2.14,3.06l-3.49.36.18.95c-1.08-.18-1.03-.93-1.47-1.21-.86-.54-3.81-1.21-4.15-1.66l.17-1.42-1.71-.02c.29-.9.89-2.04-.35-2.75l.54-.35c1.25.49,2.29-1,1.03-1.68l-1.23,1.19-2.44-.47c.81,1.22-1.54,1.13-1.76,2.15l-.69-.36c.02-.99,2.64-.55,1.5-1.55l-1.1-.03-.4-1.17c.73.27,1.82,0,2.28.04.12,0,.66,1.05,1.91.08-1.4-.09-1.99-1.29-1.04-2.03h-1.39s.35-.72.35-.72l-1.05.15c-.51.44.29.78.18,1.04-.3.69-2.16,1.26-2.24,1.59l1.01,1.76c-1.8.15-2.24-2.22-2.51-2.34-.33-.16-1.33.08-1.68-.41.8-.45.37-2.34.7-2.51.97-.5.85.91.89.97.04.06,1.21.81,1.4.92.67.39.63.33,1.19-.1l-1.08-.27-.32-.66,1.4-.87-.7-.71c.95.04,1.56-.36,2.08-.86.09-.3-3.94-2.19-.34-2.51l.35-1.42c-.22-.16-2.64,1.1-2.81,1.3-.68.76.02,1.99-2.25,1.81l.87-.96h-2.09s1.04-1.44,1.04-1.44c-1.79.21-1.78-1.16-3.31-.24l-.53-.48.7-.48c-2.22-.2-4.32-.03-6.11.96l-.17-.71c-.92-.41-3.52.67-3.99,1.19-.14.16.17.47.14.48-.42.17-2.48-.59-3.13.36l1.04,1.8,1.22-.72.89,1.18,2.42-.23c-.7-.42-.28-1.4-.43-1.61-.04-.07-1.36-.61-1.31-1.02l2.08.25c-.58.62.68,1.68,1.42,2.02-.49.98-1.46,1.25-2.8.84-.28.55.74.69,1.27.71.84.03,3.03-1.39,4.15-1.67l-.02-.96.71.96,2.63-.36-.03-.6h1.05l-.35.71c.88.09.89.02,1.21-.48.81.23,2.66,1.56,1.59,2.05l-2.1.11,1.38.84c-1.31.32-1.91,2.8-2.8.74l1.06-.5c-.97-1.34-2.87-1.07-2.45.6-3.04-.96-4.32,2.13-7.66.59-.63-.29-.47-.79-1.05-.83.08.69-.41.91-1.23,1.19-1-.7-.74-1.92-2.61-1.91l.69,1.43-2.44-.72,1.04,2.27c-.46.94-4.09-.29-4.39-.59-.06-.06-.13-1.35-.09-1.41.12-.15,2.98-1.16,3.27-1.7h.51l.52.69,4.02-.69c-1.28-.69-3.17-1.14-4.36-.01-.67-1.53-3.04-2-3.29-3.72l-2.11.14c-.22-.65.94-.65,1.23-.96.72-.79-.65-1.27-1.08-1.9-.74-1.08-.96-1.74-2.02-2.81-.37-.37-2.84-2.11-2.98-2.27-.21-.24.38-.59,0-1.04-.83-.97-2.15-.69-3.28-1.07-.29-.1-1.33-1.34-1.99-.84.51.28.76.8,1.2,1.09.86.55,3.82,1.25,1.24,1.54l3.48,1.68c.13.55-.27.33-.78.3-.98-.07-1.5-.63-1.3.53,2.29.16,2.79.66,2.78,2.16l-1.19-.24-1.25.84c.86.78,1.57-.46,2.79.12l-.28.89.47.54,1.91-.48c-.66.56-.85,1.07-.73,1.81.07.42.59.33.63.39.15.23-.69.7.81,1.03l-2.67,1.53c-.44.05-1.65-.99-2.22-.09-.37.59,1.49.26,2,.66.15.11.5,1.09.44,1.13h-1.4s.32.68.32.68c-1.27.42-.74,1.03-2.41.52l.35.72c-1.42-.4-2.56.8-3.32-.48-1.16.35-2.11,1.48-.44,1.44l.27.48c-.97-.62-2.24.8-2.08.94.06.05.52.03.66.16.32.29.31.66.46.77.11.08,1.65,0,.96.52-.39.29-5.64,1.7-5.23-.1l1.39-.38-1.07-.39.36-2c-.98-.02-1.26.93-2.08.12l.69-1.8-1.61,1.18-1.81-.51.28-1.39c-1.07-.12-.66.49-1.06.82-.55.44-1.14-.09.02,1.21l-1.39.37.35,2.14c-1.5.16-1.51-.68-2.09-1.31-.36-.39-1.25-.52-1-1.13.22-.54,1.32-.77-.05-1.5l3.48-1.92-.55-.59-2.24.23c-.23.15,1.04,1.32-.17,1.2-1.97-.19-.91-.88-1.91-1.56l1.7-.75c.48-.93-2.29-2.64.73-2.72-2.19-.92-.25-1.68.35-2.87l-1.37.02c.21.75-.63,1.12-.92,1.66-.14.25.2.61.13.68-.1.11-.92.17-1.15.5-.08.11-.38,2.13-.18,2.4l-1.02.02-.03.94-1.74-.24.02,1.8c-.56.23-1.31.02-1.88.11-.12.02-.85,1.09-1.82,0-.15-.17.09-.67-.16-1.19,1.53-.01,1.08-.49,1.46-.66.63-.27,2.13.33,2.02-.41-.85-.68-2.03,0-3.28-.12-1.04-.11-1.53-.82-2.65-.59l-.34-.61.99-.04.06-.68,2.79.96c.41-.28-1.8-2.05-2.94-1.93-.72.89-2.14,1.42-2.29,2.52.12.37,1.14.32,1.62.46.12.03.12.39.33.4,1.06.07,1.49-.78,2.22.71-1.73.01-3.02-.77-4.1-.91-.62-.08-1.21.24-1.93.16-1.08-.13-1.43-1.26-2.35.03l1.42.11c1.17,1.06-.76,1.63-1.08,2.64l2.11,1.32-1.07.36c.06.37-.09.82.07,1.16.23.49,2.96.78-1.27,1.09-1.45,1.03.45,1.21.17,1.81-.44.92-1.57-.59-1.74-.73-.78-.61-1.46-.29-1.04-1.79l1.57.43c1.12-.54,1.51-1.22.34-1.87-1,1.06-3.72.53-3.36,2.13l-1.02.14.02.84,1.22-.47.87,1.19h-1.74c.2,1.7-.97.08-1.08.03-.1-.04-.68.22-1.1.17-.49-.07-.99-.47-1.43-.41-.86.11-.6,1.16-1.61.93l-1.04-1.31,1.53-.58c.92-.82-.4-.99-.74-1.3-.5-.44.27-1.11-2.12-.35-.36.35-.1,1.48-.27,1.63-.36.33-1.12.01-.66.96-1.64.96-2.89.22-3.5-.97l-2.44.97-1.41-.96c-.85.36-.25.69-.17,1.19l-3.13-.24.69-.6c-.25-.36-1.06-.26-1.3-.42-.45-.3-.11-1.23-.28-1.39-.28-.26-.96-.05-.82-.54.28-.95,1.51-.84,2.41-1.25.08-.04,1.18-1.35,1.06-.22-.06.61-.83.92-.71,1.55.63.08,1.74-.95,1.91-1.21.75-1.15-.66-1.01-1.05-1.43-.5-.52,1.12-2.68,1.58-3.35-1.19-.13-1.68.78-2.76.85-.79.05-3.26-1.53-3.52.11,1.61-.19,1.4.98,1.86,1.61.1.15.74-.08.58.3l-1.25.23-.13,1.09-2.1.36c.22-.87.97-1.1,1.74-1.67-2.96.55-1.89-1.42-4.19-1.44.17-.87.91-1.21.35-2.15l-.89.74c-1.23-.11-2.66.09-3.84,0-.69-.06-.5-.54-1.18-.65-1.88-.3-2.87,1.04-2.07-1.75l1-.14c-.72-.8-1.22-.56-1.4-1.67-.36-2.17-.33-4.78-.36-6.94-.04-2.22-.33-5.33.02-7.43.35-2.12,4.19-3.17,6.11-4.67l.17.72c.13.12,3.7-.74,4.38-.74.71,0,.32.59,1.01.51,1.18-.13,2.09-1.28,3.52-1.43.66-.07,3.99-.25,4.54-.23.75.03,1.63.16,2.75.21,3.49.14,6.91-.17,10.44-.25,9.98-.23,20.42-.26,30.42.04.75.02,1,.71,1.71.71.46,0,1.22-.51,1.9-.62,4.15-.68,7.03-.07,11.01-.05,2.6.01,3.7-.02,6.27.2,1.68.15,3.18-.26,4.55-.25,1.6.01,3.76.28,5.58.24,3.65-.08,8,.35,11.43-.04.7-.08,1.46-.69,2.18-.67,1.12.03,3.3,1.09,4.87,1.19,2.35.16,3.45-.4,4.91-.49,10.33-.65,20.58-.2,31.04.02,2.45.05,5.64.14,7.99-.02.64-.04,1.11-.43,1.76-.45,2.82-.08,5.14,1.31,7.02,1.4,1.41.07,2.74-.89,3.84-.94,1.08-.05,3.09.24,4.17.23,7.41-.05,15.05-.35,22.5.03v.17c.66-.35,1.39-.71,2.53-.81,2.98-.27,5.84.33,8.06.28,12.29-.28,21.85-1.35,35.1-.41,2.97.21,2.63.46,2.81.47,1.06.07,5.26-1.04,7.94-.99,9.09.14,18.34.68,27.77.58,2.02-.02,4.83-.59,6.61-.55,1.99.04,2.92,1.01,5.79,1,1.8,0,2.65-.47,3.68-.52,11.91-.68,22.27-.03,34.12.01,1.84,0,4-.45,5.86-.41,2.79.05,5.67,1.22,6.67,1.21,1.02,0,2.16-.66,3.65-.83,2.66-.31,26.36-.04,29.17.34h.02ZM8.36,23.76l-.17-.48c-.57-.18-3.12,1.31-2.96,1.44,1.15.36,1.72-.03,2.79-.24l-.7-.36,1.04-.36ZM8.55,20.89l-2.98.24c.28.83,2.45.31,2.79.48-.3.51-1.2.96-.17,1.43,1.29.18.36-1.85.36-2.15ZM35.58,21.97c-.51-.63-1.78-.18-2.37-.41-.31-.12-1.07-1.72-1.46.29h2.09l-.38.93-5.9-.93c.09.77-.06,1.35-1.39,1.2l-.7-1.43c.33.05,2.16-.96,1.75-1.2-1.68.61-2.08.54-3.49-.36l.7-.84-2.1.24c-.46,1.23,1.88.77,1.75,1.68h-1.75v.96c-2.22-.33-1.66.52-2.19.9-.15.11-.66.03-.82.12-.56.36-.57,1.03-1.87.9-.19,1.15,2.05-.27,2.71-.42.66-.15,3.58-.42,3.92-.07l-.3.81,1,.38.2-1.43-2.29-.48c-.09-.48-.06-.39.44-.54,2.72-.83,2.53,1.29,3.92,1.74,1.03.33-.36-1.06.69-.72.66.22.67.63,1.93.35v.84s1.39,0,1.39,0c.83.43-1.68.7-1.98.71-1.23.03-1.56-.69-2.2-.11l.55.6,1.56-.14.37.83,1.35.03c-.21.23-.45,1.4-.53,1.45-.32.22-.96.14-1.15.28-.33.24.51,1.06-1.38.49-.32-.1-.68-.56-1.15-.69l.92-1.54-3.34-1.43c.83,1.57.67,1.89-.66,3.27l.68.45c-1.54,1.75-.27,1.05.25,1.36.23.14.11.74.62.91,1.54-.16.23-1.21.53-1.91,2.05-.48,3.16.47,5.2-.02l.02-1.18c.16-.12,2.86.88,3.84.6,1.16-.32-1.81-.89-1.72-1.23-.04-.12,1.87-2.82.02-1.96-.08.04-.05.32-.13.35-.11.04-.15.2-.45.08l-.83-.38c-.02-2.2,3.34-1.32,4.15-3.33ZM35.93,21.85c.98.06.56-.79,2.09-.48-.08-.72-2.5-1.5-3.14-1.19l1.05,1.67ZM39.07,28.55l-1.42.11-.36.81-1.35.03,1.22.48-.17.48,1.22-.23c-.39-.86.81-.94.88-1.68ZM40.09,19.54c.15-.43-1.43-1.02-1.76-1.4-.28-.34.13-.68-.29-.96-.74-.49-3.19-.58-4.19-1.21-.66-.42-.78-1.18-1.41-1.67-.71-.55-2-.79-2.79-1.21-.72-.37-.98-1.17-2.1-1.31l1.73,2.53c.51.6,1.41-.04,2.1.21.55.19,1.05,1.3,1.41,1.7l-3.15,1.79,4.68-.49.73.98c.67.18.48-.46.69-.49,1.38-.16,1.16,1.14,2.26,1.57l-.69.59,1.74,1.07c-1.81.42-2.46,1.06-3.14,2.28l2.79.48-.66-1.26c.24-.46,1.54-.87,1.65-1.28.17-.63-1.31-1.16.4-1.92ZM56.25,12.75c.59.29.79,1.06,1.65,1.21.13-1.94-2.31-3.01-4.88-2.39-.1.5-.04.39.44.53.82.24,2.01.27,2.79.65ZM60.35,19.69c-.92-1.02-2.1-1.57-1.4-2.87l-1.39.48c.97-1.08-.5-1.38-.62-1.82-.07-.29.45-.69.13-1.05-.26-.29-1.13-.31-1.5-.55-.54-.35-.92-1.17-1.84-1.37-.33,1.59,4.3,2.25,1.45,3.63l-.05.31c.24.58,2.58,1.72,2.71,1.87.18.22-.04.61.15.84.21.24,2.03.71,2.37.54ZM68.03,23.77l-2.44.48.35-.96-1.35.04-.38.78c.06.18,2.76.86,1.19,1.1-1.16.17-2.22-2.01-3.66-.84l2.03.98-.64,1.53c.51.06.93-.19,1.39-.24-.68.93-.33,1.35-.4,1.41-.05.06-2.1.67-.47.98,1.69.31.67-1.57,1.91-2.04.23-.48-.58-.4-1.04-.35.27-.37.33-.87,1.06-1.09,1.39-.41,3.3.96,2.43-1.79ZM71.17,24.49c.36.96,2.16.1,2.45.24v1.43c1.22-.41.78-1.44,1.04-2.15l-3.49.48ZM70.12,19.7c.55.91,2.19-.25,3.49.23l-1.94-.96-1.55.73ZM82.67,11.68c.04-.54-1.99-1.7-2.78-.72.25.48,2.71,1.67,2.78.72ZM95.6,28.31c2.04-.27,3.2-1.82,5.58-1.44-.44-1.7-.77-.72-1.77-.38-.37.13-4.64,1.28-3.81,1.82ZM99.08,10.6l.76,1.15c.78.24,2-.07,1.68-.79l-2.44-.36ZM95.25,17.78l.87.96c1.08.12-.06-.75,1.05-.73,1.12.02,1.55.73,2.61.73.18-1.02-1.88-.84-2.3-1.19l.21-.97c-1.18-.02-1.5.77-1.39,1.44l-1.04-.24ZM99.08,17.07c.07.96,2.07.99,1.07,2.04-.89.93-1.57.28-2.63.34-1.69.09-2.98.61-3.68,1.68,1.16-.02,1.57-.66,2.79-.24l-.7-.71h1.91s-.02.72-.02.72l1.05.25c.41-.48.63-.81,1.59-.73l-.36-.71,1.91.48c1.73-.22-1.95-3.73-2.95-3.11ZM117.23,34.77c.28-.77-.69-.33-.97-.52-.36-.24-.13-1.49-1.12-1.63-.59,1.08.1,2.37,2.09,2.15ZM114.59,16.82c-.21-.25.74-2.51-1.45-.84.66.8,1.07,1.76,2.69,1.8.22-.64-.98-.66-1.24-.96ZM121.61,18.48c.27.54.13,1.13.15,1.69,1.34-.54,3.27-2.38.7-2.63l.7.71c-2.33-.23-1.88-2.39-3.83-3.1-.31.68.8.94.97,1.36.17.4-.09.92.15,1.22.11.14.88.17,1.16.75ZM123.16,29.28l-1.02-.02c-.05-.64.03-2.32-1.42-2.38.95,1.06.07,1.93.74,3.08.15.09,1.09.08,1.3-.01.04-.02.26-.52.41-.67ZM128.04,21.37l-2.39.27c-.18,1.23-.87,1.15-2.14,1.77l1.74.84c-.44-.83,2.47-1.91,2.71-2.19.17-.21.05-.46.07-.68ZM136.42,19.93c.02-.52-.53-1.67-1.57-1.43-1.28.3.55.79.52.84-.87.08-1.69,1-1.8,1.04-.27.1-1.62-.68-1.35.28l2.23.19c.74-.1.73-1.21,1.95-.91ZM139.81,17.72c-1.17-.44-3.42-.8-4.79-.9-.31.91,1.25.25,1.69.52.14.09.17.89.75,1.04l-.7.6h2.45l-.35-.72h1.39c.14-.54-.04-.39-.44-.54ZM144.09,18.02c-1.57.18-2.29-1.63-2.87-1.86-.85-.34-2.78-.12-3.75-.06.08,1.23,1.5.47,2.29.49.82.02,1.89,1.18,2.59,1.54l-1.05.74.36,1.05c.46-.03.54-.42.82-.62.57-.39,1.32-.69,1.61-1.29ZM147.23,32.86c1.02.16,2.32.58,3.13-.11l-1.2-.78-1.93.89ZM160.49,20.06c-.76-.63-2.01-.89-1.39-1.8l-2.09.24,1.39-1.68c-.9-.31-1.15.49-1.23.49-.57-.02-2.94-.95-3.31-.73l.35.72h-2.09c.37,1.62,2.45-.09,3.83.24l-.04.93-2.05.27c-.25.66.76.6,1.4.72l-.36.71c1.66-.66,2.4.49,3.68.51.61,0,.47-.39.6-.43.5-.16,1.08.05,1.3-.19ZM164.33,20.66l-1.02-1.32-2.46.12v1.43c1.19.12,1.44-.09,1.94-.74l1.54.5ZM181.08,28.08l-1.4-1.92c-.79.3-.49.94-1.73.72l-.36-1.44,1.4-.24-2.45-.24c.48,1.12-1.27,1.03-1.4,2.04l2.1-.12-.7,1.68c1.37.15,1.52-1.05,2.98-1.21l1.55.73ZM181.08,20.66l1.74-.36c-1.47-1.59-2.45-.35-3.81-.23-.48.04-.74-.37-1.16-.33-.4.04-.99.56-1.65.43l.35.96c1.79-.61,1.65.16,1.99.24.28.07.59-.03.81,0-.31.86-.4,1.57-1.4,2.28l3.14,2.03c.17-.43-.47-.54-.58-.88-.09-.27.24-.55-.02-.97-.55-.91-1.79-.9-.45-2.46-.22-.02-.49.03-.7,0,.05-.13-.04-.33,0-.48l2.1.24-.36-.48ZM190.35,25.04l-.19-.53-1.09-.05s0,.01,0,.01l-.93.05-.42,1.16c.93.21.59-.33.77-.42l.95.09v-.39c.3,0,.62.04.93.09ZM196.44,26.4l-.25-.08.16.16.09-.08ZM197.27,25.13c-.36-.04-.73-.1-1.1-.17-.33.12-.67.24-.97.34l.8.83.77-.11c-.48-.55.04-.68.51-.89ZM206.94,22.62l-2.92-.5,2.91-1.17c-3.49-.94-4.96,1.12-6.57,2.32l4.02-.65,1.81,1.66.74-1.66ZM216.41,26.61l-2.91.33c-.68-.35,3.08-2.15-3.26-2.34-.78-.03-2.05-.17-1.84.35,4.2.47,1.41,3.13,7.3,3-1.54-1.08,1.19-.2.72-1.33ZM216.41,21.29c-1.19-.64-1.84.89-2.59.97-2.04.2-4.04-1.34-4.7-.97l-1.46,1.66c.87.03,2.02-.12,2.78.07.43.11.53.77,1.24.93h1.07c-.06-.68,4.72-2.09,3.66-2.66ZM219.17,16.7c-.37-.25-3.32-.47-3.9-1.05l-5.41-3.68c-.82,1.91,4.47,2.55,4.37,4.12-.02.24-2.94.75-2.91,1.2l3.94-.34c.77,1.14,2.41.67,2.52.73.92.49.31,1.98.09,2.62,3.71.11,2.33-2.91,1.3-3.59ZM238.01,16.99c-.92-1.44.24-3.34-3.36-4.03l1.46,2.66-2.93.16c.54,1.12,2.61.88,2.75.94.35.13,3.05,3.02,3.8,2.56.35-.88-1.23-1.53-1.73-2.3ZM247.46,24.63l-.42-1.35-1.76.35-.79-.68c-2.48.21-5.08,1.05-1.29,1.82l-.53.85,4.8-.98ZM266.74,22.95c-1.08.5,1.25,2.32,2.35,2.57.68.15,1.32.1,2.03.09-.71-1.54.78-2.86-4.38-2.66ZM280.6,19.62l-1.46-2.67-3.64.33-.72-.99-.73,1.66,2.94-.18c.97.35.38,1.22.84,1.45.28.15,2.06.14,2.77.4ZM317.07,17.3l-5.1-.67,2.18,1.32-2.1.03c.77,1.51-1.92,1.16-2.27,2.31,2.58.28,4-1.15,2.92-2l3.64.33c-1.43-1.24-.41-.62.73-1.32ZM340.41,18.96c-2.9.37-7.66-.7-5.82-2l-3.31-.67-2.53,1.33,3.64-.33c.8.9-2.16.77-2.17,1.16,0,.07,1.67.6.71,1.17l2.18-.34,1.48,2c1.19.09,2.22-.27,2.19-.83-.02-.44-2.45.18-2.19-.5,3.49-.83,1.96.28,4.35.33l1.47-1.32ZM356.45,27.12l-1.81-1.17-1.48.33c-.27-.66,1.72-1.89-1.07-1.67l-1.46,2c1.69-.32,2.23.54,2.41.58l3.41-.07ZM352.82,19.63v.99s1.34-.26,1.34-.26l.47.59c6.59-1.59,4.36-2.38-1.8-1.32ZM372.5,21.12l-1.46-.36v-2.13l-2.91.34,2.18.99c-1.53-.12-3.01.96-2.18,1.34.06.03,1.19-.09,1.95.11.45.11,0,.67.6.56l1.82-.83Z"></path>
    <path class="st0" d="M276.79,30.56l.16-1.95c-5.92.42-4.96,2.91-5.84,4.99l4.77.34c.05-.95-.49-1.78,1.82-2.17l-.74-.67-1.45.17.04-.65,1.25-.06Z"></path>
    <path class="st0" d="M260.31,34.33l-.81.91,1.4.36-3.64-.33c-1.47,1.62.48,1.39.73,2.66l2.55-1.33,1.81,1c-1.37-1.29,1.39-1.96.73-3.33l-2.78.06Z"></path>
    <path class="st0" d="M264.41,33.65l-.58.61c3.24.54,6.29-4.14,5.83-4.32-2.45-.2-3.66.39-5.1,1.16h2.91s-4.37,2.33-4.37,2.33l1.31.21Z"></path>
    <path class="st0" d="M311.97,37.26h3.65s.72-3.33.72-3.33l-4.32.82c.56,1.25,1.99.27,2.86,1.17-1.43.08-3.13.56-2.91,1.33Z"></path>
    <path class="st0" d="M263.82,41.92l.79-2.77-3.69-1.23c-.32.2.13,4.38,2.91,3.99Z"></path>
    <path class="st0" d="M262.36,25.27l-1.82-.99c-1.58.49-5.01,2.7-1.48,2.9,3.31.19.37-2.06,3.29-1.91Z"></path>
    <path class="st0" d="M255.79,31.12l3.65.16v-1.99c-1.08-.02-2.66.07-3.45.42-.69.31-1.35,1.11-.2,1.42Z"></path>
    <path class="st0" d="M192.25,30.59l2.09.84-.35.71h1.39c-.26-.87-1.44-1.14-.7-2.15l-2.43.6Z"></path>
    <path class="st0" d="M115.48,39.32c-.54-.54-.69-1.64-1.61-1.89-1.19-.32-.65.4-.92.61-.18.14-1.55.58-1.31.79,1.44.1,2.4.95,3.84.48Z"></path>
    <path class="st0" d="M65.54,40.3c.27.13.72,1.37,1.79,1.17-.15-.35.36-.97.17-1.21-.06-.07-1.67-1.11-1.78-1.16-1.73-.73-1.35.58-3.28.21-.03,1.88,2.86.87,3.09.98Z"></path>
    <path class="st0" d="M75.34,30.7c.02-.34.26-.86-.5-.71-.32.37-2.56.58-2.27,1.07.69,1.18,1.95-.69,2.78-.36Z"></path>
    <path class="st0" d="M63.74,33.39c.15-.05,1.27-.76,1.36-.86.17-.18.4-.32.45-.55,0-.21-1.57-1.47-2.23-1.28-.63.3-.62.86-.56,1.33.06.5,1.02.25.74.95-1.16.09-.65.7.24.41Z"></path>
    <path class="st0" d="M53.37,37.89c.08-.69-.95-.98-1.74-.96l1.39-1.55c-1.25-.99-4.63-1.66-1.72.02l-1.06,1.66,3.13.83Z"></path>
    <path class="st0" d="M79.71,31.18l.25.41c.68.27,1.45-.23,1.67-.64h-1.05c-.21-.46.73-.63.64-1.03-.08-.35-1.92-2.57-2.73-2.08l.37.82-.69.15-.02.46,1.73.6c-1.24.82-2.75.22-3.83-.36l1.04,1.08-1.04.48c1.23.74,2.37.74,3.66.11Z"></path>
    <path class="st0" d="M78.87,26.97c.49,1.13,5.05.84,3.47-1.29l1.74.48c.34-.23-1.71-1.52-2.06-1.76-.27-.18-.19-.25-.73-.16,1.01.99-2.79,1.88-2.42,2.73Z"></path>
    <path class="st0" d="M80.94,35.5l.87.49,1.22-.49v.71c-1.59.46-2.34-.09-3.83-.23l-.35,1.44h1.05s-.35,1.68-.35,1.68c1.57.09,2.31-1.26,1.75-2.15l2.79,1.43-.68-1.05c1.27-.85,2.58-.98,1.76-2.43-2.16-.6-2.62.29-4.22.61Z"></path>
    <path class="st0" d="M84.74,42.54l1.39.1.95-2.6-4.04-1.43c-.21,1.62,1.55,2.36,1.7,3.93Z"></path>
    <path class="st0" d="M2.35,34.92c.1.41-.46.74-.08,1.51.55,1.13,2.7,1.48,1.91.02.94-.23.56.43.92.48.74.11,1.77-.07,2.56,0l-2.53-.71-.61-.96c1.57-.12,2.66.21,3.32,1.2,1.03.11.9-.36,1.34-.64.4-.26,1.09-.26.92-.8l-1.36.03-.55.68c-.67-1.48-3.37-1.11-2.57-3.08l1.34-.28-1.04-1.67c.26-.18,2.64,1.23,2.78-.47l-2.09-.73.55-.95c-1.7-.87-3.44-2.53-5.73-1.64.23,1.3-.38,2.7-.41,3.9-.02.66-.01,2.26.12,2.85.14.62,1.12.93,1.21,1.26Z"></path>
    <path class="st0" d="M8.18,40.53c.7.96,1.74,1.41,3.33,1.43-.88-.78-1.84-1.23-1.81-2.35-1.67-.4-2.47-.38-1.52.92Z"></path>
    <path class="st0" d="M42.55,26.4v.72c.34.27,1.54-1,2.09-.11.32.51-1.1.16-.7.83l2.11.35c.97.7-.65,1.8,3.13,1.8.38-.28.81-.43,1.04-.84-1.08-.85-3.55-.95-3.15-2.26l-4.52-.49Z"></path>
    <path class="st0" d="M48.19,30.51l-.05,1.63h3.14s-.33-.69-.33-.69l1.58-.52,1.21.61-.71,1.07c2.26.23,3.5-.92,1.89-2.13-1.77.54-1.28-.05-1.97-.34-1.74-.72-2.07-.16-3.76-.16-.32.24-.47.43-1,.52Z"></path>
    <path class="st0" d="M45.68,29.76c-1.27-.79-3.27,1.72-2.06,2.61h1.02c-.3-.77,2.06-1.98,1.04-2.61Z"></path>
    <path class="st0" d="M43.16,29.71c.42.05,2.4-.58,2.54-.69.74-.57.06-.32-.38-.38-.76-.1-1-.1-1.77-.37-.33-.11-.52-.83-1.33-.33l1.04,1.08-2.09-.47c.31.44,1.3,1.08,2,1.16Z"></path>
    <path class="st0" d="M135.73,37.53c.41.44.58.29,1.12.29.45,0,2.62.02,2.73-.03.51-.25.71-1.74-.33-1.59l-.03-.46,1.02-.38-.89-1.29-3.27.71.35,1.43c.95.31,1.11-.47,1.22-.49.58-.06,1.35.17,1.22.6-.1.32-2.84.24-3.13,1.2Z"></path>
    <path class="st0" d="M133.98,41c-.1.34.17.53.41.79,1.59,1.73,3.51-1.12-.41-.79Z"></path>
    <path class="st0" d="M85.13,33.58l1.39.84-.69.6c1.3.32,1.94-.86,2.37-.96.33-.08.94.07,1.12,0,.03-.01-.28-.3-.14-.48.14-.17.69-.2.95-.54.65-.85.4-2.32,1.98-2.09l-.7-1.44c-1.04-.04-1.12.45-.69.96l-2.25.02c-.48-.09.34-1.05-1.23-.73-.43.94,1.11.63,1.04,1.43l-1.74.24.98.51.08.55c-1.4.4-.58,1.41-2.46,1.09Z"></path>
    <path class="st0" d="M137.03,40.45c.08-.02.1-.26.23-.3,1.56-.59,1.82-.52,1.61-2.02-2.24-.75-5.02,3.26-1.83,2.32Z"></path>
    <path class="st0" d="M153.86,30.94l1.4-.85-.68-1.15c.21-.51,2.16-.84,2.8-.52-.1,1.15,1.11.5,1.54-.11l1.75.95c.9-.43.51-.91-.17-1.31.57-.63,1.25-.07,2.09-.12v-1.2s2.44-.6,2.44-.6c-.39-.26-1.9.47-2.09-.24-.03-.11,1.02-1.23,1.12-1.26.62-.25,2.62.25,3.43.31l.02,2.5c1.66.02,1.86.24,2.73,1.18.31.34.22.43.86,1.02.2.19.17.52.31.62.8.61,4.07,0,2.7,1.98l1.75.24c-.68,1.13-2.57.22-3.01,1.56.06.94,1.73,1.03,2.22,1.37.98.68.32,1.52,3.23,1.14v-.96s1.04,0,1.04,0l.2.72-1.94.72c-.26.64.58.45,1.04.83-1.27.96-1.91.51-3.17.26-1.74-.35-1.68.65.03.58l-1.02.25c-.97.92,2,2.13,2.01,2.5,0,.17-1.05.66-.92,1.16.14.55,1.89,1.12.99,1.93-.56.51-1.62-.24-1.85-.65-.32-.57.32-1.51-1.31-1.97-.87-.25-2.8.74-3.58-.41-.42-.62.07-1.1-.09-1.39-.21-.38-.91-1.06-1.39-1.9-.63-1.11-1.32-1.83-1.22-3.12,5.01-.35-3.04-2.08-3.47-3.01-.18-.4,1.34-1.45,1.73-1.66l-2.1-.36.35-1.2-2.44.96c-.05.41.79.21,1.25.46,1.52.8-1.06,2.33-.9,2.41l1.56-.47c1.67,1.43-.32,1.12-.79,1.47-.07.05.37.55-.24.62-2.29-.19-6.79.25-7.16-1.86l1.74.48-.32-.69c1.32-.21.97-.51.66-1.22l-1.59.49-1.55-.49ZM169.57,36.93c-.1.05.85,1.21.89,1.42.06.33-.54.5-.47.8.06.27.82.68.63,1.13,1.34.86,1.27-3.91-1.05-3.35Z"></path>
    <path class="st0" d="M171.66,43.16c-.34,1.2.99,2.49,2.78,2.53,2-.64-2.31-2.87-2.78-2.53Z"></path>
    <polygon class="st0" points="177.25 41.72 177.94 43.4 180.03 43.15 179.16 41.72 178.46 42.2 177.25 41.72"></polygon>
    <path class="st0" d="M142.61,32.91c-.25-.17-1.2-.42-1.49-.04l.02,1.68,1.76-.72c-.17-.17-.24-.88-.29-.92Z"></path>
    <path class="st0" d="M94.55,32.86l-.7,1.19,3.68.48.7-.24c.24-.24-.56-.96.85-.96l-.69-.24.35-.61,1.37-.25.02-1.53c-1.08-.14-.46.5-1.26.93-.29.16-1.18.34-1.18-.09,0-.1,1.02-1.69,1.12-1.76.29-.19,1.24.25.96-.52l-2.56-.26c-.71.99-1.86,1.23-3.35,1.47l.68,1.9-1.74.12,1.74.36Z"></path>
    <polygon class="st0" points="106.06 32.39 102.57 32.14 102.57 33.34 103.64 33.23 106.06 32.39"></polygon>
    <path class="st0" d="M125.25,39.33c.13.98.11,1.85,1.55,2.41.84.32,1.54.13,2.28.35.58.17.86.95,1.75.83l-.02-.94c-1.39.06-2.46-.52-3.47-1.09l.7-.83-2.79-.72Z"></path>
    <path class="st0" d="M99.43,37.89l.35,1.91-2.44-.47c1.42,1.07,1.56,1.02.7,2.39,5.07.26,2.25-.81,2.09-2.87h1.4c.35-.62-1.94-1.07-2.09-.96Z"></path>
    <path class="st0" d="M113.04,24.73c-.88.67,1.14.27,1.39.35.69.22,1.55,1.35,2.45,1.57v-1.67c-.78,0-3.33-.62-3.83-.24Z"></path>
    <path class="st0" d="M100.83,33.58c.18.54,1.72.73,2,1.02.64.67-.42,2.4,1.14,2.33-.76-1.15,1.22-1.41.65-2.6-1.59-.08-2.16-1.31-3.79-.75Z"></path>
  </g></svg>
